HIERARCHY
ROOT Hips
{
	OFFSET 0.000000 0.000000 0.000000
	CHANNELS 6 Xposition Yposition Zposition Zrotation Yrotation Xrotation
	JOINT LHipJoint
	{
		OFFSET 0.000000 0.000000 0.000000
		CHANNELS 3 Zrotation Yrotation Xrotation
		JOINT LeftUpLeg
		{
			OFFSET 1.363060 -1.794630 0.839290
			CHANNELS 3 Zrotation Yrotation Xrotation
			JOINT LeftLeg
			{
				OFFSET 2.448110 -6.726130 0.000000
				CHANNELS 3 Zrotation Yrotation Xrotation
				JOINT LeftFoot
				{
					OFFSET 2.562200 -7.039590 0.000000
					CHANNELS 3 Zrotation Yrotation Xrotation
					JOINT LeftToeBase
					{
						OFFSET 0.157640 -0.433110 2.322550
						CHANNELS 3 Zrotation Yrotation Xrotation
						End Site
						{
							OFFSET 0.000000 0.000000 0.000000
						}
					}
				}
			}
		}
	}
	JOINT RHipJoint
	{
		OFFSET 0.000000 0.000000 0.000000
		CHANNELS 3 Zrotation Yrotation Xrotation
		JOINT RightUpLeg
		{
			OFFSET -1.305520 -1.794630 0.839290
			CHANNELS 3 Zrotation Yrotation Xrotation
			JOINT RightLeg
			{
				OFFSET -2.542530 -6.985550 0.000000
				CHANNELS 3 Zrotation Yrotation Xrotation
				JOINT RightFoot
				{
					OFFSET -2.568260 -7.056230 0.000000
					CHANNELS 3 Zrotation Yrotation Xrotation
					JOINT RightToeBase
					{
						OFFSET -0.164730 -0.452590 2.363150
						CHANNELS 3 Zrotation Yrotation Xrotation
						End Site
						{
							OFFSET 0.000000 0.000000 0.000000
						}
					}
				}
			}
		}
	}
	JOINT LowerBack
	{
		OFFSET 0.000000 0.000000 0.000000
		CHANNELS 3 Zrotation Yrotation Xrotation
		JOINT Spine
		{
			OFFSET 0.028270 2.035590 -0.193380
			CHANNELS 3 Zrotation Yrotation Xrotation
			JOINT Spine1
			{
				OFFSET 0.056720 2.048850 -0.042750
				CHANNELS 3 Zrotation Yrotation Xrotation
				JOINT Neck
				{
					OFFSET 0.000000 0.000000 0.000000
					CHANNELS 3 Zrotation Yrotation Xrotation
					JOINT Neck1
					{
						OFFSET -0.054170 1.746240 0.172020
						CHANNELS 3 Zrotation Yrotation Xrotation
						JOINT Head
						{
							OFFSET 0.104070 1.761360 -0.123970
							CHANNELS 3 Zrotation Yrotation Xrotation
							End Site
							{
								OFFSET 0.000000 0.000000 0.000000
							}
						}
					}
				}
				JOINT LeftShoulder
				{
					OFFSET 0.000000 0.000000 0.000000
					CHANNELS 3 Zrotation Yrotation Xrotation
					JOINT LeftArm
					{
						OFFSET 3.362410 1.200890 -0.311210
						CHANNELS 3 Zrotation Yrotation Xrotation
						JOINT LeftForeArm
						{
							OFFSET 4.983000 -0.000000 -0.000000
							CHANNELS 3 Zrotation Yrotation Xrotation
							JOINT LeftHand
							{
								OFFSET 3.483560 -0.000000 -0.000000
								CHANNELS 3 Zrotation Yrotation Xrotation
								JOINT LeftFingerBase
								{
									OFFSET 0.000000 0.000000 0.000000
									CHANNELS 3 Zrotation Yrotation Xrotation
									JOINT LeftHandIndex1
									{
										OFFSET 0.715260 -0.000000 -0.000000
										CHANNELS 3 Zrotation Yrotation Xrotation
										End Site
										{
											OFFSET 0.000000 0.000000 0.000000
										}
									}
								}
								JOINT LThumb
								{
									OFFSET 0.000000 0.000000 0.000000
									CHANNELS 3 Zrotation Yrotation Xrotation
									End Site
									{
										OFFSET 0.000000 0.000000 0.000000
									}
								}
							}
						}
					}
				}
				JOINT RightShoulder
				{
					OFFSET 0.000000 0.000000 0.000000
					CHANNELS 3 Zrotation Yrotation Xrotation
					JOINT RightArm
					{
						OFFSET -3.136600 1.374050 -0.404650
						CHANNELS 3 Zrotation Yrotation Xrotation
						JOINT RightForeArm
						{
							OFFSET -5.241900 -0.000000 -0.000000
							CHANNELS 3 Zrotation Yrotation Xrotation
							JOINT RightHand
							{
								OFFSET -3.444170 -0.000000 -0.000000
								CHANNELS 3 Zrotation Yrotation Xrotation
								JOINT RightFingerBase
								{
									OFFSET 0.000000 0.000000 0.000000
									CHANNELS 3 Zrotation Yrotation Xrotation
									JOINT RightHandIndex1
									{
										OFFSET -0.622530 -0.000000 -0.000000
										CHANNELS 3 Zrotation Yrotation Xrotation
										End Site
										{
											OFFSET 0.000000 0.000000 0.000000
										}
									}
								}
								JOINT RThumb
								{
									OFFSET 0.000000 0.000000 0.000000
									CHANNELS 3 Zrotation Yrotation Xrotation
									End Site
									{
										OFFSET 0.000000 0.000000 0.000000
									}
								}
							}
						}
					}
				}
			}
		}
	}
}
MOTION
Frames: 9
Frame Time: 0.008333
2.148299 -0.666766 -7.301494 6.941995 -0.610581 1.368219 0.457474 1.299114 2.325654 -11.628277 4.056201 13.313877 5.144913 1.722451 8.764538 1.759215 -5.943068 -3.058780 -0.445467 -2.637975 0.701245 -4.407839 -2.399914 -2.285642 -10.202888 9.210933 -13.369813 -4.221550 -2.099246 16.452261 -0.853981 -7.855236 1.635099 -1.924587 -2.213989 18.361198 1.412212 -4.357903 0.582165 2.062857 -3.783860 -1.229361 1.898899 -2.882319 -6.333442 -3.837092 -1.457191 -1.470038 -1.661482 5.161717 3.879951 -2.588813 -1.964040 1.046178 2.644901 -1.029569 -0.437090 -4.882246 -22.744137 40.154800 0.772821 -21.704456 0.198306 -0.528416 0.319894 -6.429800 -0.907616 4.770678 -11.723554 0.803969 0.000000 0.000000 -10.317618 -25.418755 3.850361 -0.048108 -2.539621 -0.564056 -21.525930 -25.153263 -54.087776 12.608232 -0.675125 7.738493 0.213707 0.093461 15.841791 -56.098797 -9.664667 14.211257 -2.201306 0.000000 0.000000 14.752317 15.018650 -31.877172
2.152254 -0.620034 -7.413936 6.996169 -0.498875 1.464786 0.382547 1.317153 2.327988 -11.625980 4.013873 13.687565 5.135152 1.659176 8.458342 1.741172 -5.925416 -3.452331 -0.392421 -3.070190 0.419008 -4.271322 -2.400804 -2.357933 -10.149620 9.544262 -13.383385 -3.901525 -1.734817 14.938076 -0.730091 -8.247505 1.804979 -1.833628 -2.358209 19.099951 1.712750 -4.330200 0.668787 2.103213 -3.745590 -1.107454 1.917508 -2.922705 -6.429902 -3.776285 -1.407161 -1.656961 -1.624651 5.212718 3.835349 -2.512919 -1.975421 1.000347 2.616604 -1.069639 -0.449526 -5.104445 -22.566107 39.189930 0.888904 -21.826162 0.092041 -0.550376 0.274181 -6.344699 -1.402899 4.811377 -11.783208 0.818205 0.000000 0.000000 -10.149013 -25.774246 4.081091 0.075675 -2.550951 -0.564533 -21.530697 -24.564287 -54.298168 12.447342 -0.541279 7.764359 0.222887 0.083842 16.049673 -55.094482 -9.643004 15.067183 -2.221834 0.000000 0.000000 15.306334 15.361335 -31.613476
2.148143 -0.561762 -7.493147 7.045191 -0.368556 1.621686 0.360391 1.363618 2.367751 -11.494315 4.077362 14.285789 5.158608 1.643341 8.235323 1.727098 -5.909149 -3.746574 -0.315606 -3.484096 0.140247 -4.190413 -2.426903 -2.514505 -10.307107 9.880985 -12.934509 -3.529861 -1.332587 13.159302 -0.809315 -8.733332 1.291927 -1.786853 -2.502050 18.719641 1.835004 -4.346322 0.780839 2.105672 -3.759747 -1.056955 1.899264 -2.952423 -6.473316 -3.708482 -1.389277 -1.847087 -1.603376 5.239245 3.770924 -2.448349 -1.986321 0.976583 2.611834 -1.091469 -0.456316 -5.207603 -22.350527 38.237862 0.999815 -21.927294 -0.008864 -0.571005 0.230139 -6.205617 -1.847994 4.933312 -11.831196 0.825808 0.000000 0.000000 -10.371830 -26.511883 3.973305 0.156130 -2.587501 -0.577395 -21.675951 -23.967846 -54.498428 12.262978 -0.474802 7.735305 0.226504 0.070468 16.233997 -54.279339 -9.703414 15.647953 -2.251653 0.000000 0.000000 15.314073 15.329260 -31.559656
2.142886 -0.536174 -7.676606 7.088572 -0.267932 1.728102 0.267677 1.361064 2.363257 -11.529109 4.013261 14.501409 5.110384 1.549397 7.818798 1.687428 -6.027250 -4.148925 -0.255740 -3.981197 -0.337067 -4.175027 -2.463612 -2.682193 -10.431256 9.957143 -12.534999 -3.180697 -0.943467 11.912063 -0.882858 -8.361950 1.481037 -1.740413 -2.522261 18.606304 2.045171 -4.321406 1.032410 2.098885 -3.776137 -0.986031 1.892971 -2.965412 -6.450954 -3.600338 -1.340183 -1.959029 -1.554120 5.299869 3.758619 -2.362749 -1.982891 0.983807 2.631247 -1.104634 -0.460021 -5.269611 -22.121712 37.314175 1.121845 -22.002699 -0.106914 -0.591789 0.184741 -6.016744 -2.262604 4.937337 -11.909689 0.835265 0.000000 0.000000 -10.231535 -26.709528 4.330096 0.297999 -2.580483 -0.580475 -21.645012 -23.294403 -54.574883 12.186114 -0.315704 7.854199 0.245422 0.071158 16.514128 -53.165314 -9.574739 16.824430 -2.265400 0.000000 0.000000 15.913546 15.636472 -30.779612
2.187476 -0.498634 -7.929214 7.279737 -0.037220 1.798092 0.161385 1.363827 2.358127 -11.582792 3.946069 14.906645 5.011752 1.487587 7.491696 1.590591 -6.274620 -4.707763 -0.200472 -4.728791 -1.482161 -4.125900 -2.484499 -2.822835 -10.157022 9.867341 -12.158070 -2.805597 -0.538700 10.609906 -1.108637 -8.263985 1.575639 -1.776482 -2.595714 18.247074 2.196914 -4.312718 1.226934 2.137040 -3.760704 -0.887900 1.895299 -2.992386 -6.394368 -3.496520 -1.287925 -1.998979 -1.502171 5.393079 3.777848 -2.198153 -1.938035 1.000903 2.674015 -1.086547 -0.457992 -5.226622 -21.838165 36.637238 1.295841 -22.046555 -0.195437 -0.600366 0.149892 -5.614857 -2.534853 4.597014 -12.092590 0.854716 0.000000 0.000000 -10.051612 -26.872505 4.569377 0.394857 -2.559736 -0.586046 -21.613962 -22.675743 -54.699383 12.117052 -0.268413 8.210288 0.287749 0.066433 16.775602 -51.798313 -9.470394 18.026043 -2.278569 0.000000 0.000000 16.511923 15.962081 -30.058399
2.179987 -0.491722 -8.502599 7.422289 0.128584 1.851603 0.069281 1.388029 2.367259 -11.613500 3.887679 15.711680 4.950965 1.530699 7.517989 1.563264 -6.272724 -5.008074 -0.090189 -5.259096 -2.274984 -3.946679 -2.471571 -2.978281 -9.967249 9.786846 -11.668892 -2.446791 0.049540 10.337440 -1.216666 -6.944387 2.673845 -1.770865 -2.471065 17.296322 2.277047 -4.301306 1.347745 2.154890 -3.770166 -0.798790 1.890535 -3.031571 -6.363699 -3.445052 -1.271561 -2.116865 -1.496004 5.420697 3.696334 -2.120973 -1.923774 0.964206 2.667255 -1.110682 -0.469293 -5.493948 -21.669746 35.733273 1.438925 -22.095137 -0.287568 -0.601633 0.124984 -5.126915 -2.714558 4.376761 -12.194197 0.889762 0.000000 0.000000 -9.781363 -26.879595 4.954920 0.478572 -2.544035 -0.594678 -21.572447 -22.143118 -54.862122 12.024111 -0.336341 8.609663 0.328901 0.051684 17.028370 -50.088612 -9.331326 19.303082 -2.286076 0.000000 0.000000 16.791220 16.113081 -30.366203
2.190103 -0.407619 -8.860345 7.524511 0.283341 2.007132 0.082148 1.463851 2.425338 -11.538707 3.901977 16.614990 4.934349 1.551853 7.561761 1.602953 -6.154376 -5.330836 0.001798 -5.659280 -2.755004 -3.777784 -2.482906 -3.168126 -9.962321 9.714231 -11.762921 -2.217185 0.210819 8.724718 -1.541264 -6.934324 2.117651 -1.786534 -2.235951 16.238035 2.364060 -4.302327 1.361177 2.169973 -3.770345 -0.730113 1.869430 -3.058229 -6.312479 -3.382947 -1.255292 -2.315953 -1.487913 5.449220 3.628298 -2.111929 -1.940861 0.899570 2.631996 -1.155070 -0.481423 -5.792931 -21.511175 34.643127 1.496959 -22.302025 -0.424958 -0.607656 0.084238 -5.058198 -3.198550 3.862725 -12.435704 0.881876 0.000000 0.000000 -10.243411 -27.564684 4.730285 0.505839 -2.569600 -0.612975 -21.669765 -21.802980 -55.236237 11.730842 -0.449832 8.864631 0.344649 0.022337 17.207169 -49.226185 -9.527218 20.048969 -2.310802 0.000000 0.000000 16.611301 15.958995 -32.253929
2.195752 -0.363161 -9.377874 7.579141 0.355759 2.050846 0.013791 1.495099 2.440554 -11.601419 3.817698 17.396448 4.889761 1.487506 7.357999 1.611341 -6.160454 -5.766485 0.069686 -6.039588 -3.136564 -3.634606 -2.504211 -3.298846 -9.845085 9.645520 -11.993751 -1.955374 0.468259 7.727998 -1.689716 -6.038228 2.258200 -1.715297 -1.747084 15.040764 2.469469 -4.288490 1.402491 2.191344 -3.755409 -0.640691 1.864719 -3.074696 -6.213783 -3.272506 -1.201266 -2.437768 -1.447217 5.516483 3.627893 -2.065488 -1.938310 0.895688 2.666934 -1.146840 -0.479533 -5.798051 -21.245632 33.914001 1.655289 -22.378832 -0.529084 -0.595070 0.086621 -4.441585 -3.420146 3.868250 -12.438796 0.914997 0.000000 0.000000 -10.045510 -27.430861 5.126780 0.551582 -2.573804 -0.621628 -21.589729 -21.395300 -55.526371 11.552897 -0.394498 9.082661 0.356281 -0.000352 17.477013 -47.623650 -9.349543 21.443377 -2.319533 0.000000 0.000000 17.672270 16.419909 -33.370819
2.154953 -0.255554 -9.553267 7.640810 0.544062 2.182593 0.028460 1.589012 2.507301 -11.551160 3.796284 18.576485 4.942692 1.497241 7.329859 1.601705 -6.262065 -6.181502 0.140036 -6.226311 -3.640212 -3.530492 -2.526950 -3.391861 -9.859620 9.558514 -11.991677 -1.717220 0.735536 6.772436 -1.949292 -5.857966 1.468435 -1.768077 -1.468764 14.272323 2.585194 -4.259058 1.454630 2.196163 -3.734538 -0.565482 1.854720 -3.109909 -6.169200 -3.194646 -1.169986 -2.556096 -1.405107 5.559797 3.619693 -2.062049 -1.941375 0.866796 2.666469 -1.169338 -0.482650 -5.938871 -21.040861 33.259750 1.818990 -22.549324 -0.662230 -0.591459 0.063400 -4.194420 -3.838559 4.171876 -12.465099 0.939616 0.000000 0.000000 -9.977975 -27.219673 5.591072 0.503372 -2.632051 -0.628674 -21.465210 -21.043739 -55.770996 11.456456 -0.268720 9.102606 0.359035 -0.024576 17.693859 -47.002720 -9.385914 22.110924 -2.344625 0.000000 0.000000 18.498390 16.796707 -34.469620
